<mxfile host="app.diagrams.net" modified="2024-05-14T19:41:34.343Z" agent="Mozilla/5.0 (Macintosh; Intel Mac OS X 10_15_7) AppleWebKit/537.36 (KHTML, like Gecko) Chrome/124.0.0.0 Safari/537.36" etag="x-YevfRvMxz_Vi-yK4ci" version="24.2.7" type="device">
  <diagram name="Page-1" id="0xOW4885DbV_pfVw6aR8">
    <mxGraphModel dx="2988" dy="2450" grid="1" gridSize="10" guides="1" tooltips="1" connect="1" arrows="1" fold="1" page="1" pageScale="1" pageWidth="850" pageHeight="1100" math="0" shadow="0">
      <root>
        <mxCell id="0" />
        <mxCell id="1" parent="0" />
        <mxCell id="eRmMjCsz-64GpUnFcFSN-54" value="" style="rounded=0;whiteSpace=wrap;html=1;" vertex="1" parent="1">
          <mxGeometry x="240" y="-190" width="1210" height="1010" as="geometry" />
        </mxCell>
        <mxCell id="eRmMjCsz-64GpUnFcFSN-53" value="" style="rounded=0;whiteSpace=wrap;html=1;" vertex="1" parent="1">
          <mxGeometry x="35" y="85" width="195" height="110" as="geometry" />
        </mxCell>
        <mxCell id="eRmMjCsz-64GpUnFcFSN-50" value="" style="rounded=0;whiteSpace=wrap;html=1;" vertex="1" parent="1">
          <mxGeometry x="-150" y="220" width="230" height="340" as="geometry" />
        </mxCell>
        <mxCell id="eRmMjCsz-64GpUnFcFSN-35" style="edgeStyle=orthogonalEdgeStyle;rounded=0;orthogonalLoop=1;jettySize=auto;html=1;entryX=0.5;entryY=0;entryDx=0;entryDy=0;" edge="1" parent="1" source="eRmMjCsz-64GpUnFcFSN-1" target="eRmMjCsz-64GpUnFcFSN-2">
          <mxGeometry relative="1" as="geometry" />
        </mxCell>
        <mxCell id="eRmMjCsz-64GpUnFcFSN-38" style="edgeStyle=orthogonalEdgeStyle;rounded=0;orthogonalLoop=1;jettySize=auto;html=1;entryX=0.5;entryY=0;entryDx=0;entryDy=0;" edge="1" parent="1" source="eRmMjCsz-64GpUnFcFSN-1" target="eRmMjCsz-64GpUnFcFSN-5">
          <mxGeometry relative="1" as="geometry" />
        </mxCell>
        <mxCell id="eRmMjCsz-64GpUnFcFSN-41" style="edgeStyle=orthogonalEdgeStyle;rounded=0;orthogonalLoop=1;jettySize=auto;html=1;entryX=0.5;entryY=1;entryDx=0;entryDy=0;" edge="1" parent="1" source="eRmMjCsz-64GpUnFcFSN-1" target="eRmMjCsz-64GpUnFcFSN-8">
          <mxGeometry relative="1" as="geometry" />
        </mxCell>
        <mxCell id="eRmMjCsz-64GpUnFcFSN-42" style="edgeStyle=orthogonalEdgeStyle;rounded=0;orthogonalLoop=1;jettySize=auto;html=1;entryX=0.5;entryY=1;entryDx=0;entryDy=0;" edge="1" parent="1" source="eRmMjCsz-64GpUnFcFSN-1" target="eRmMjCsz-64GpUnFcFSN-9">
          <mxGeometry relative="1" as="geometry">
            <Array as="points">
              <mxPoint x="495" y="140" />
            </Array>
          </mxGeometry>
        </mxCell>
        <mxCell id="eRmMjCsz-64GpUnFcFSN-43" style="edgeStyle=orthogonalEdgeStyle;rounded=0;orthogonalLoop=1;jettySize=auto;html=1;entryX=0.5;entryY=1;entryDx=0;entryDy=0;" edge="1" parent="1" source="eRmMjCsz-64GpUnFcFSN-1" target="eRmMjCsz-64GpUnFcFSN-10">
          <mxGeometry relative="1" as="geometry" />
        </mxCell>
        <mxCell id="eRmMjCsz-64GpUnFcFSN-44" style="edgeStyle=orthogonalEdgeStyle;rounded=0;orthogonalLoop=1;jettySize=auto;html=1;entryX=0.5;entryY=1;entryDx=0;entryDy=0;" edge="1" parent="1" source="eRmMjCsz-64GpUnFcFSN-1" target="eRmMjCsz-64GpUnFcFSN-11">
          <mxGeometry relative="1" as="geometry" />
        </mxCell>
        <mxCell id="eRmMjCsz-64GpUnFcFSN-45" style="edgeStyle=orthogonalEdgeStyle;rounded=0;orthogonalLoop=1;jettySize=auto;html=1;entryX=0.5;entryY=1;entryDx=0;entryDy=0;" edge="1" parent="1" source="eRmMjCsz-64GpUnFcFSN-1" target="eRmMjCsz-64GpUnFcFSN-12">
          <mxGeometry relative="1" as="geometry" />
        </mxCell>
        <mxCell id="eRmMjCsz-64GpUnFcFSN-46" style="edgeStyle=orthogonalEdgeStyle;rounded=0;orthogonalLoop=1;jettySize=auto;html=1;entryX=0.5;entryY=1;entryDx=0;entryDy=0;" edge="1" parent="1" source="eRmMjCsz-64GpUnFcFSN-1" target="eRmMjCsz-64GpUnFcFSN-13">
          <mxGeometry relative="1" as="geometry" />
        </mxCell>
        <mxCell id="eRmMjCsz-64GpUnFcFSN-47" style="edgeStyle=orthogonalEdgeStyle;rounded=0;orthogonalLoop=1;jettySize=auto;html=1;entryX=0.5;entryY=1;entryDx=0;entryDy=0;" edge="1" parent="1" source="eRmMjCsz-64GpUnFcFSN-1" target="eRmMjCsz-64GpUnFcFSN-14">
          <mxGeometry relative="1" as="geometry" />
        </mxCell>
        <mxCell id="eRmMjCsz-64GpUnFcFSN-48" style="edgeStyle=orthogonalEdgeStyle;rounded=0;orthogonalLoop=1;jettySize=auto;html=1;entryX=0.5;entryY=1;entryDx=0;entryDy=0;" edge="1" parent="1" source="eRmMjCsz-64GpUnFcFSN-1" target="eRmMjCsz-64GpUnFcFSN-15">
          <mxGeometry relative="1" as="geometry" />
        </mxCell>
        <mxCell id="eRmMjCsz-64GpUnFcFSN-49" style="edgeStyle=orthogonalEdgeStyle;rounded=0;orthogonalLoop=1;jettySize=auto;html=1;entryX=0;entryY=0.5;entryDx=0;entryDy=0;" edge="1" parent="1" source="eRmMjCsz-64GpUnFcFSN-1" target="eRmMjCsz-64GpUnFcFSN-16">
          <mxGeometry relative="1" as="geometry">
            <Array as="points">
              <mxPoint x="150" y="-130" />
            </Array>
          </mxGeometry>
        </mxCell>
        <mxCell id="eRmMjCsz-64GpUnFcFSN-1" value="CarparkSystem" style="rounded=1;whiteSpace=wrap;html=1;" vertex="1" parent="1">
          <mxGeometry x="90" y="110" width="120" height="60" as="geometry" />
        </mxCell>
        <mxCell id="eRmMjCsz-64GpUnFcFSN-36" style="edgeStyle=orthogonalEdgeStyle;rounded=0;orthogonalLoop=1;jettySize=auto;html=1;entryX=0.5;entryY=0;entryDx=0;entryDy=0;" edge="1" parent="1" source="eRmMjCsz-64GpUnFcFSN-2" target="eRmMjCsz-64GpUnFcFSN-3">
          <mxGeometry relative="1" as="geometry" />
        </mxCell>
        <mxCell id="eRmMjCsz-64GpUnFcFSN-2" value="CarPark" style="rounded=1;whiteSpace=wrap;html=1;" vertex="1" parent="1">
          <mxGeometry x="-90" y="250" width="120" height="60" as="geometry" />
        </mxCell>
        <mxCell id="eRmMjCsz-64GpUnFcFSN-37" style="edgeStyle=orthogonalEdgeStyle;rounded=0;orthogonalLoop=1;jettySize=auto;html=1;entryX=0.5;entryY=0;entryDx=0;entryDy=0;" edge="1" parent="1" source="eRmMjCsz-64GpUnFcFSN-3" target="eRmMjCsz-64GpUnFcFSN-4">
          <mxGeometry relative="1" as="geometry" />
        </mxCell>
        <mxCell id="eRmMjCsz-64GpUnFcFSN-3" value="ParkingSpot" style="rounded=1;whiteSpace=wrap;html=1;" vertex="1" parent="1">
          <mxGeometry x="-90" y="360" width="120" height="60" as="geometry" />
        </mxCell>
        <mxCell id="eRmMjCsz-64GpUnFcFSN-4" value="Car" style="rounded=1;whiteSpace=wrap;html=1;" vertex="1" parent="1">
          <mxGeometry x="-90" y="470" width="120" height="60" as="geometry" />
        </mxCell>
        <mxCell id="eRmMjCsz-64GpUnFcFSN-39" style="edgeStyle=orthogonalEdgeStyle;rounded=0;orthogonalLoop=1;jettySize=auto;html=1;entryX=0.5;entryY=0;entryDx=0;entryDy=0;" edge="1" parent="1" source="eRmMjCsz-64GpUnFcFSN-5" target="eRmMjCsz-64GpUnFcFSN-6">
          <mxGeometry relative="1" as="geometry" />
        </mxCell>
        <mxCell id="eRmMjCsz-64GpUnFcFSN-5" value="CarparkView" style="rounded=1;whiteSpace=wrap;html=1;" vertex="1" parent="1">
          <mxGeometry x="255" y="250" width="120" height="60" as="geometry" />
        </mxCell>
        <mxCell id="eRmMjCsz-64GpUnFcFSN-40" style="edgeStyle=orthogonalEdgeStyle;rounded=0;orthogonalLoop=1;jettySize=auto;html=1;entryX=0.5;entryY=0;entryDx=0;entryDy=0;" edge="1" parent="1" source="eRmMjCsz-64GpUnFcFSN-6" target="eRmMjCsz-64GpUnFcFSN-7">
          <mxGeometry relative="1" as="geometry" />
        </mxCell>
        <mxCell id="eRmMjCsz-64GpUnFcFSN-6" value="ParkingSpotView" style="rounded=1;whiteSpace=wrap;html=1;" vertex="1" parent="1">
          <mxGeometry x="255" y="360" width="120" height="60" as="geometry" />
        </mxCell>
        <mxCell id="eRmMjCsz-64GpUnFcFSN-26" style="edgeStyle=orthogonalEdgeStyle;rounded=0;orthogonalLoop=1;jettySize=auto;html=1;entryX=0;entryY=0.5;entryDx=0;entryDy=0;" edge="1" parent="1" source="eRmMjCsz-64GpUnFcFSN-7" target="eRmMjCsz-64GpUnFcFSN-17">
          <mxGeometry relative="1" as="geometry" />
        </mxCell>
        <mxCell id="eRmMjCsz-64GpUnFcFSN-27" style="edgeStyle=orthogonalEdgeStyle;rounded=0;orthogonalLoop=1;jettySize=auto;html=1;entryX=0;entryY=0.5;entryDx=0;entryDy=0;" edge="1" parent="1" source="eRmMjCsz-64GpUnFcFSN-7" target="eRmMjCsz-64GpUnFcFSN-18">
          <mxGeometry relative="1" as="geometry" />
        </mxCell>
        <mxCell id="eRmMjCsz-64GpUnFcFSN-28" style="edgeStyle=orthogonalEdgeStyle;rounded=0;orthogonalLoop=1;jettySize=auto;html=1;entryX=0;entryY=0.5;entryDx=0;entryDy=0;" edge="1" parent="1" source="eRmMjCsz-64GpUnFcFSN-7" target="eRmMjCsz-64GpUnFcFSN-19">
          <mxGeometry relative="1" as="geometry" />
        </mxCell>
        <mxCell id="eRmMjCsz-64GpUnFcFSN-29" style="edgeStyle=orthogonalEdgeStyle;rounded=0;orthogonalLoop=1;jettySize=auto;html=1;entryX=0;entryY=0.5;entryDx=0;entryDy=0;" edge="1" parent="1" source="eRmMjCsz-64GpUnFcFSN-7" target="eRmMjCsz-64GpUnFcFSN-20">
          <mxGeometry relative="1" as="geometry" />
        </mxCell>
        <mxCell id="eRmMjCsz-64GpUnFcFSN-30" style="edgeStyle=orthogonalEdgeStyle;rounded=0;orthogonalLoop=1;jettySize=auto;html=1;entryX=0;entryY=0.5;entryDx=0;entryDy=0;" edge="1" parent="1" source="eRmMjCsz-64GpUnFcFSN-7" target="eRmMjCsz-64GpUnFcFSN-21">
          <mxGeometry relative="1" as="geometry" />
        </mxCell>
        <mxCell id="eRmMjCsz-64GpUnFcFSN-31" style="edgeStyle=orthogonalEdgeStyle;rounded=0;orthogonalLoop=1;jettySize=auto;html=1;entryX=0;entryY=0.5;entryDx=0;entryDy=0;" edge="1" parent="1" source="eRmMjCsz-64GpUnFcFSN-7" target="eRmMjCsz-64GpUnFcFSN-22">
          <mxGeometry relative="1" as="geometry" />
        </mxCell>
        <mxCell id="eRmMjCsz-64GpUnFcFSN-32" style="edgeStyle=orthogonalEdgeStyle;rounded=0;orthogonalLoop=1;jettySize=auto;html=1;entryX=0;entryY=0.5;entryDx=0;entryDy=0;" edge="1" parent="1" source="eRmMjCsz-64GpUnFcFSN-7" target="eRmMjCsz-64GpUnFcFSN-23">
          <mxGeometry relative="1" as="geometry" />
        </mxCell>
        <mxCell id="eRmMjCsz-64GpUnFcFSN-33" style="edgeStyle=orthogonalEdgeStyle;rounded=0;orthogonalLoop=1;jettySize=auto;html=1;entryX=0;entryY=0.5;entryDx=0;entryDy=0;" edge="1" parent="1" source="eRmMjCsz-64GpUnFcFSN-7" target="eRmMjCsz-64GpUnFcFSN-24">
          <mxGeometry relative="1" as="geometry" />
        </mxCell>
        <mxCell id="eRmMjCsz-64GpUnFcFSN-34" style="edgeStyle=orthogonalEdgeStyle;rounded=0;orthogonalLoop=1;jettySize=auto;html=1;entryX=0;entryY=0.5;entryDx=0;entryDy=0;" edge="1" parent="1" source="eRmMjCsz-64GpUnFcFSN-7" target="eRmMjCsz-64GpUnFcFSN-25">
          <mxGeometry relative="1" as="geometry" />
        </mxCell>
        <mxCell id="eRmMjCsz-64GpUnFcFSN-7" value="MenuPanel" style="rounded=1;whiteSpace=wrap;html=1;" vertex="1" parent="1">
          <mxGeometry x="255" y="470" width="120" height="60" as="geometry" />
        </mxCell>
        <mxCell id="eRmMjCsz-64GpUnFcFSN-8" value="addParkingSpotDialog" style="rounded=1;whiteSpace=wrap;html=1;" vertex="1" parent="1">
          <mxGeometry x="255" y="-80" width="150" height="60" as="geometry" />
        </mxCell>
        <mxCell id="eRmMjCsz-64GpUnFcFSN-9" value="deleteParkingSpotDialog" style="rounded=1;whiteSpace=wrap;html=1;" vertex="1" parent="1">
          <mxGeometry x="415" y="-80" width="160" height="60" as="geometry" />
        </mxCell>
        <mxCell id="eRmMjCsz-64GpUnFcFSN-10" value="parkCarDialog" style="rounded=1;whiteSpace=wrap;html=1;" vertex="1" parent="1">
          <mxGeometry x="585" y="-80" width="120" height="60" as="geometry" />
        </mxCell>
        <mxCell id="eRmMjCsz-64GpUnFcFSN-11" value="findCarByRegNoDialog" style="rounded=1;whiteSpace=wrap;html=1;" vertex="1" parent="1">
          <mxGeometry x="717" y="-80" width="150" height="60" as="geometry" />
        </mxCell>
        <mxCell id="eRmMjCsz-64GpUnFcFSN-12" value="removeCarByRegNoDialog" style="rounded=1;whiteSpace=wrap;html=1;" vertex="1" parent="1">
          <mxGeometry x="875" y="-80" width="160" height="60" as="geometry" />
        </mxCell>
        <mxCell id="eRmMjCsz-64GpUnFcFSN-13" value="findCarByMakeDialog" style="rounded=1;whiteSpace=wrap;html=1;" vertex="1" parent="1">
          <mxGeometry x="1045" y="-80" width="130" height="60" as="geometry" />
        </mxCell>
        <mxCell id="eRmMjCsz-64GpUnFcFSN-14" value="resetCarParkDialog" style="rounded=1;whiteSpace=wrap;html=1;" vertex="1" parent="1">
          <mxGeometry x="1185" y="-80" width="120" height="60" as="geometry" />
        </mxCell>
        <mxCell id="eRmMjCsz-64GpUnFcFSN-15" value="exitProgramDialog" style="rounded=1;whiteSpace=wrap;html=1;" vertex="1" parent="1">
          <mxGeometry x="1315" y="-80" width="120" height="60" as="geometry" />
        </mxCell>
        <mxCell id="eRmMjCsz-64GpUnFcFSN-16" value="parkingSpotViewActionDialog" style="rounded=1;whiteSpace=wrap;html=1;" vertex="1" parent="1">
          <mxGeometry x="725" y="-160" width="180" height="60" as="geometry" />
        </mxCell>
        <mxCell id="eRmMjCsz-64GpUnFcFSN-17" value="addParkingSpotBtn" style="rounded=1;whiteSpace=wrap;html=1;" vertex="1" parent="1">
          <mxGeometry x="595" y="190" width="120" height="60" as="geometry" />
        </mxCell>
        <mxCell id="eRmMjCsz-64GpUnFcFSN-18" value="delParkingSpotBtn" style="rounded=1;whiteSpace=wrap;html=1;" vertex="1" parent="1">
          <mxGeometry x="595" y="260" width="120" height="60" as="geometry" />
        </mxCell>
        <mxCell id="eRmMjCsz-64GpUnFcFSN-19" value="listSpotsBtn" style="rounded=1;whiteSpace=wrap;html=1;" vertex="1" parent="1">
          <mxGeometry x="595" y="330" width="120" height="60" as="geometry" />
        </mxCell>
        <mxCell id="eRmMjCsz-64GpUnFcFSN-20" value="parkCarBtn" style="rounded=1;whiteSpace=wrap;html=1;" vertex="1" parent="1">
          <mxGeometry x="595" y="400" width="120" height="60" as="geometry" />
        </mxCell>
        <mxCell id="eRmMjCsz-64GpUnFcFSN-21" value="findCarByRegNoBtn" style="rounded=1;whiteSpace=wrap;html=1;" vertex="1" parent="1">
          <mxGeometry x="595" y="470" width="120" height="60" as="geometry" />
        </mxCell>
        <mxCell id="eRmMjCsz-64GpUnFcFSN-22" value="removeCarByRegNoBtn" style="rounded=1;whiteSpace=wrap;html=1;" vertex="1" parent="1">
          <mxGeometry x="595" y="540" width="150" height="60" as="geometry" />
        </mxCell>
        <mxCell id="eRmMjCsz-64GpUnFcFSN-23" value="findCarByMakeBtn" style="rounded=1;whiteSpace=wrap;html=1;" vertex="1" parent="1">
          <mxGeometry x="595" y="610" width="120" height="60" as="geometry" />
        </mxCell>
        <mxCell id="eRmMjCsz-64GpUnFcFSN-24" value="resetCarparkBtn" style="rounded=1;whiteSpace=wrap;html=1;" vertex="1" parent="1">
          <mxGeometry x="595" y="680" width="120" height="60" as="geometry" />
        </mxCell>
        <mxCell id="eRmMjCsz-64GpUnFcFSN-25" value="exitBtn" style="rounded=1;whiteSpace=wrap;html=1;" vertex="1" parent="1">
          <mxGeometry x="595" y="750" width="120" height="60" as="geometry" />
        </mxCell>
        <mxCell id="eRmMjCsz-64GpUnFcFSN-51" value="Model" style="text;html=1;align=center;verticalAlign=middle;whiteSpace=wrap;rounded=0;" vertex="1" parent="1">
          <mxGeometry x="-150" y="220" width="60" height="30" as="geometry" />
        </mxCell>
        <mxCell id="eRmMjCsz-64GpUnFcFSN-52" value="Controller" style="text;html=1;align=center;verticalAlign=middle;whiteSpace=wrap;rounded=0;" vertex="1" parent="1">
          <mxGeometry x="35" y="85" width="65" height="30" as="geometry" />
        </mxCell>
        <mxCell id="eRmMjCsz-64GpUnFcFSN-55" value="View" style="text;html=1;align=center;verticalAlign=middle;whiteSpace=wrap;rounded=0;" vertex="1" parent="1">
          <mxGeometry x="240" y="-190" width="60" height="30" as="geometry" />
        </mxCell>
      </root>
    </mxGraphModel>
  </diagram>
</mxfile>
